<?xml version="1.0" encoding="UTF-8" standalone="no"?>
<svg
   xmlns:dc="http://purl.org/dc/elements/1.1/"
   xmlns:cc="http://creativecommons.org/ns#"
   xmlns:rdf="http://www.w3.org/1999/02/22-rdf-syntax-ns#"
   xmlns:svg="http://www.w3.org/2000/svg"
   xmlns="http://www.w3.org/2000/svg"
   xmlns:sodipodi="http://sodipodi.sourceforge.net/DTD/sodipodi-0.dtd"
   xmlns:inkscape="http://www.inkscape.org/namespaces/inkscape"
   sodipodi:docname="drawing.svg"
   inkscape:version="1.0 (4035a4fb49, 2020-05-01)"
   inkscape:export-ydpi="96.034981"
   inkscape:export-xdpi="96.034981"
   inkscape:export-filename="C:\Users\Dan\Documents\GitHub\Rip-Response-Bot\avatar.png"
   id="svg8"
   version="1.1"
   viewBox="0 0 1024 1024"
   height="1024"
   width="1024">
  <defs
     id="defs2">
    <filter
       height="1.0048"
       y="-0.0024"
       width="1.0048"
       x="-0.0024"
       id="filter880"
       style="color-interpolation-filters:sRGB"
       inkscape:collect="always">
      <feGaussianBlur
         id="feGaussianBlur882"
         stdDeviation="1.0187371"
         inkscape:collect="always" />
    </filter>
    <filter
       height="1.0018675"
       y="-0.00093377222"
       width="1.0033572"
       x="-0.0016785799"
       id="filter924"
       style="color-interpolation-filters:sRGB"
       inkscape:collect="always">
      <feGaussianBlur
         id="feGaussianBlur926"
         stdDeviation="0.096191409"
         inkscape:collect="always" />
    </filter>
  </defs>
  <sodipodi:namedview
     inkscape:window-maximized="1"
     inkscape:window-y="-8"
     inkscape:window-x="1912"
     inkscape:window-height="1017"
     inkscape:window-width="1920"
     inkscape:pagecheckerboard="false"
     inkscape:bbox-nodes="true"
     inkscape:snap-bbox="true"
     units="px"
     showgrid="false"
     inkscape:document-rotation="0"
     inkscape:current-layer="g868"
     inkscape:document-units="px"
     inkscape:cy="514.9997"
     inkscape:cx="492.37422"
     inkscape:zoom="0.65741667"
     inkscape:pageshadow="2"
     inkscape:pageopacity="0"
     borderopacity="1.0"
     bordercolor="#666666"
     pagecolor="#656565"
     id="base" />
  <metadata
     id="metadata5">
    <rdf:RDF>
      <cc:Work
         rdf:about="">
        <dc:format>image/svg+xml</dc:format>
        <dc:type
           rdf:resource="http://purl.org/dc/dcmitype/StillImage" />
        <dc:title></dc:title>
      </cc:Work>
    </rdf:RDF>
  </metadata>
  <g
     id="layer1"
     inkscape:groupmode="layer"
     inkscape:label="Layer 1">
    <g
       style="filter:url(#filter880)"
       id="g843">
      <circle
         inkscape:label="path839"
         r="252.14436"
         cy="512"
         cx="512"
         id="path839"
         style="opacity:1;fill:#000000;fill-opacity:0;stroke:#000000;stroke-width:5;stroke-miterlimit:4;stroke-dasharray:none;stroke-opacity:1" />
      <path
         sodipodi:type="star"
         style="opacity:1;fill:#000000;fill-opacity:0;stroke:#000000;stroke-width:5.05738;stroke-miterlimit:4;stroke-dasharray:none;stroke-opacity:1"
         id="path837"
         sodipodi:sides="6"
         sodipodi:cx="511.75018"
         sodipodi:cy="511.78366"
         sodipodi:r1="514.02832"
         sodipodi:r2="445.16162"
         sodipodi:arg1="0"
         sodipodi:arg2="0.52359878"
         inkscape:flatsided="true"
         inkscape:rounded="0"
         inkscape:randomized="0"
         d="M 1025.7785,511.78366 768.76434,956.94524 H 254.73602 L -2.2781372,511.78366 254.73602,66.622077 l 514.02832,0 z"
         transform="matrix(0.98880916,0,0,0.98849826,6.4436076,7.3384449)" />
      <path
         id="path878"
         d="m 510.04519,263.4469 c -78.13655,0.6452 -155.18162,39.77974 -200.08775,104.02934 -46.67621,64.37179 -59.47547,151.62519 -32.41856,226.49616 26.51074,77.58154 93.7744,139.68629 173.62804,158.85176 90.53521,24.24329 192.79381,-9.60699 252.01704,-82.00029 C 761.11609,602.51121 776.7878,501.87055 742.48887,419.14924 710.2764,337.13328 631.33227,276.2629 543.95599,265.42222 c -11.23698,-1.46395 -22.58002,-2.11319 -33.9108,-1.97532 z"
         style="opacity:1;fill:#ffffff;fill-opacity:1;stroke:#000000;stroke-width:7.60553;stroke-miterlimit:4;stroke-dasharray:none;stroke-opacity:1" />
      <circle
         style="opacity:1;fill:#000000;fill-opacity:0;stroke:#000000;stroke-width:5;stroke-miterlimit:4;stroke-dasharray:none;stroke-opacity:1"
         id="path833"
         cx="512"
         cy="512"
         r="509.36856" />
      <g
         id="g868">
        <path
           style="fill:#808000;stroke:#000000;stroke-width:2;stroke-linecap:butt;stroke-linejoin:miter;stroke-miterlimit:4;stroke-dasharray:none;stroke-opacity:1"
           d="M 258.32892,73.194252 380.27633,296.61554"
           id="path848" />
        <path
           style="fill:none;stroke:#000000;stroke-width:2;stroke-linecap:butt;stroke-linejoin:miter;stroke-miterlimit:4;stroke-dasharray:none;stroke-opacity:1"
           d="M 766.5957,73.199529 639.26673,293.56805"
           id="path850" />
        <path
           style="fill:none;stroke:#000000;stroke-width:2;stroke-linecap:butt;stroke-linejoin:miter;stroke-miterlimit:4;stroke-dasharray:none;stroke-opacity:1"
           d="M 1020.7428,513.2357 H 765.11598"
           id="path852" />
        <path
           style="fill:none;stroke:#000000;stroke-width:2;stroke-linecap:butt;stroke-linejoin:miter;stroke-miterlimit:4;stroke-dasharray:none;stroke-opacity:1"
           d="M 766.60483,953.27715 640.27143,734.46128"
           id="path854" />
        <path
           style="fill:#ffffff;fill-opacity:1;stroke:#000000;stroke-width:2;stroke-linecap:butt;stroke-linejoin:miter;stroke-miterlimit:4;stroke-dasharray:none;stroke-opacity:1"
           d="M 258.32892,953.27715 384.04918,735.52329"
           id="path858" />
        <path
           style="fill:none;stroke:#000000;stroke-width:2;stroke-linecap:butt;stroke-linejoin:miter;stroke-miterlimit:4;stroke-dasharray:none;stroke-opacity:1"
           d="M 4.1909647,513.2357 H 257.0668"
           id="path860" />
        <path
           id="path886"
           d="M 258.2161,81.410402 C 176.26363,220.4713 95.724754,360.39283 15.432895,500.42564 c -1.060302,2.86186 -8.3416482,10.69469 -1.276966,10.09689 77.597529,1.17614 155.245491,1.47455 232.839671,0.13547 4.73803,0.18184 11.85055,-0.32617 10.33517,-7.08442 1.58164,-81.35691 46.65945,-159.611 114.05318,-204.68967 3.91193,-2.36505 6.26099,-6.72192 2.29428,-10.5112 -37.10169,-69.45459 -74.58768,-138.76294 -113.86082,-207.00093 -0.39629,-0.416046 -1.08794,-0.553094 -1.60131,0.03862 z"
           style="opacity:1;fill:#808000;fill-opacity:1;stroke:#000000;stroke-width:3.04221;stroke-miterlimit:4;stroke-dasharray:none;stroke-opacity:1" />
        <path
           id="path888"
           d="m 462.3413,75.937988 c -66.08785,0.219693 -132.19388,-0.15784 -198.26955,0.876418 -0.87402,6.111179 6.28232,12.180692 8.15043,18.242669 35.94535,65.722795 70.81294,132.165755 108.46963,196.868965 30.52565,-14.7126 62.56625,-28.86401 96.7328,-32.81073 27.01643,-0.73889 54.47084,-2.67454 81.25742,1.83464 27.54279,5.19553 53.32802,16.18395 78.5448,27.90416 5.12609,-0.26816 5.93518,-8.75746 9.32884,-11.98265 C 685.17587,211.02883 723.91253,145.20878 761.03053,78.513766 757.4202,74.741869 749.46096,77.934952 744.34635,76.742323 650.3484,75.828027 556.34275,75.947045 462.3413,75.937988 Z"
           style="opacity:1;fill:#808000;fill-opacity:1;stroke:#000000;stroke-width:3.04221;stroke-miterlimit:4;stroke-dasharray:none;stroke-opacity:1" />
        <path
           id="path890"
           d="M 764.81844,81.291566 C 723.39972,149.97325 683.34543,219.54053 643.97969,289.43343 c -0.73616,5.40387 7.98134,7.63785 10.94215,11.30081 41.6002,29.49705 75.97559,70.16178 94.3503,118.02932 11.91115,29.07466 17.3294,60.42608 17.87846,91.7263 18.84448,2.20919 39.32559,0.31752 58.80024,0.94771 62.81293,0 125.62586,0 188.43876,0 -0.1293,-7.44262 -8.0067,-14.91865 -10.9886,-22.36195 C 925.01208,352.84641 846.55664,216.62671 766.41085,81.428227 c -0.35051,-0.434584 -0.9454,-0.704053 -1.59241,-0.136661 z"
           style="opacity:1;fill:#808000;fill-opacity:1;stroke:#000000;stroke-width:3.04221;stroke-miterlimit:4;stroke-dasharray:none;stroke-opacity:1" />
        <path
           id="path892"
           d="m 767.15655,516.46138 c -1.23557,85.62485 -49.08013,168.66255 -122.07723,213.20682 -9.43163,3.63726 2.97943,11.66701 4.09946,17.43078 38.93723,66.18733 76.277,133.35006 116.07936,199.00634 5.30309,-2.29082 6.60641,-10.82297 10.50903,-15.24986 C 855.938,793.14754 935.69641,655.1995 1015.0432,517.01694 c -7.1194,-3.60374 -18.15039,-0.42062 -26.72625,-1.49734 -73.3874,0 -146.77478,0 -220.16218,0 z"
           style="opacity:1;fill:#808000;fill-opacity:1;stroke:#000000;stroke-width:3.04221;stroke-miterlimit:4;stroke-dasharray:none;stroke-opacity:1" />
        <path
           id="path894"
           d="m 385.63243,735.58077 c -40.6079,70.42817 -81.21023,140.85956 -121.80726,211.29401 3.01071,4.16438 11.55949,0.5156 16.41985,1.89606 159.98236,0.9875 319.98682,1.17536 479.96256,-0.0393 0.711,-6.31844 -6.82107,-12.46129 -8.93211,-18.68495 -37.43138,-64.81935 -74.16103,-130.28491 -112.58697,-194.38566 -14.46868,3.35453 -27.19078,12.71109 -41.67308,16.66005 -24.63021,9.11234 -50.85428,14.66247 -77.30883,13.27232 -26.14947,0.52416 -52.77107,0.51359 -77.69225,-8.47053 -19.2318,-5.39309 -37.3416,-13.65782 -55.41636,-22.0382 z"
           style="opacity:1;fill:#808000;fill-opacity:1;stroke:#000000;stroke-width:3.04221;stroke-miterlimit:4;stroke-dasharray:none;stroke-opacity:1" />
        <path
           id="path896"
           d="m 65.647722,515.82264 c -18.064487,0.1888 -36.170319,-0.20331 -54.210174,0.5823 0.744939,7.74884 8.18711,15.05357 11.408023,22.61624 76.545888,132.49149 151.984519,265.64378 230.492079,396.9852 2.50285,2.31542 3.71882,9.39261 7.57009,8.67883 41.49356,-69.86469 81.58278,-140.55768 122.36579,-210.84243 -12.6254,-10.88517 -28.41244,-19.68362 -40.90941,-31.58373 -52.35867,-46.45139 -84.0567,-115.11955 -85.52356,-185.04603 -19.36908,-2.22917 -40.33443,-0.43989 -60.31806,-1.122 -43.62483,-0.12687 -87.24965,-0.33388 -130.874778,-0.26838 z"
           style="opacity:1;fill:#00ff00;fill-opacity:1;stroke:#000000;stroke-width:3.04221;stroke-miterlimit:4;stroke-dasharray:none;stroke-opacity:1" />
        <path
           id="path898"
           d="M 258.81622,87.093751 C 244.82016,106.13295 233.91688,127.90136 221.35883,148.1124 151.50269,266.98735 83.095015,386.70768 14.182668,506.13451 c 6.639765,3.76723 17.277202,0.98052 25.40127,2.31433 71.576292,1.11836 143.222422,1.83951 214.772952,-0.817 2.82002,-16.03619 2.36788,-33.52648 6.6073,-49.86373 13.9773,-64.5102 54.48579,-121.77936 107.84325,-160.05428 3.84409,-2.10279 5.88337,-5.96619 2.30021,-9.54302 C 336.09089,221.81749 300.18644,155.8767 262.80614,90.843038 261.65892,89.614452 260.731,87.248915 258.81622,87.093751 Z"
           style="opacity:1;fill:#00ff00;fill-opacity:1;stroke:#000000;stroke-width:3.04221;stroke-miterlimit:4;stroke-dasharray:none;stroke-opacity:1" />
        <path
           id="path900"
           d="m 483.47338,77.661115 c -71.92841,0.431414 -143.89498,-0.557217 -215.789,2.064782 0.38967,8.030489 8.30414,16.143723 11.489,24.204953 33.61626,61.70692 66.84386,123.63289 101.71748,184.644 16.71448,-5.61203 33.38036,-14.75138 50.74609,-20.0982 21.00945,-7.78541 42.82058,-12.46421 65.21443,-11.59843 29.81404,-0.11706 60.40385,-1.74773 88.74513,9.30135 18.12295,4.79717 34.67699,14.92475 52.88701,19.16293 19.95331,-30.57548 37.47323,-63.22936 56.2603,-94.72972 21.12911,-36.43145 42.1952,-72.89846 62.72757,-109.671782 -7.10706,-3.67828 -18.14026,-0.719411 -26.70775,-1.92885 -82.41866,-1.584339 -164.86049,-1.280029 -247.29026,-1.351033 z"
           style="opacity:1;fill:#00ff00;fill-opacity:1;stroke:#000000;stroke-width:3.04221;stroke-miterlimit:4;stroke-dasharray:none;stroke-opacity:1" />
        <path
           id="path902"
           d="m 764.99372,87.209616 c -13.72956,17.042894 -22.98653,37.497354 -34.75559,55.964664 -28.14836,48.83326 -57.20648,97.23801 -83.60541,147.02862 5.55883,8.80638 16.77411,13.09935 24.26801,20.37641 57.11069,46.04453 95.36975,116.39165 97.62243,190.12437 -0.70747,6.6322 5.63939,9.40349 11.31026,8.23239 76.09591,1.22792 152.26022,1.59833 228.34108,-0.38919 5.659,-0.95197 -1.3332,-8.15968 -2.1765,-11.06553 C 928.68413,363.6032 851.91052,229.38922 772.87051,96.527352 c -2.55369,-2.619491 -4.0238,-8.690598 -7.87679,-9.317736 z"
           style="opacity:1;fill:#00ff00;fill-opacity:1;stroke:#000000;stroke-width:3.04221;stroke-miterlimit:4;stroke-dasharray:none;stroke-opacity:1" />
        <path
           id="path904"
           d="m 854.36163,517.05556 c -27.83322,0.67659 -55.91525,-1.20503 -83.60137,1.74096 -4.81151,4.81811 -1.19974,13.68349 -3.22015,19.87453 -8.5136,79.12441 -56.15515,152.61937 -123.69708,194.2864 4.3253,11.37168 12.77165,21.56095 18.31862,32.6257 33.62272,57.26954 65.76749,115.49671 100.57418,172.02833 3.90568,6.2208 7.28335,-2.19268 9.18232,-5.43476 79.66127,-135.06171 158.34723,-270.71879 235.80475,-407.05811 1.6957,-2.08005 4.8517,-7.79415 -0.3684,-6.99055 -50.97387,-1.48965 -102.00104,-0.9348 -152.99287,-1.0725 z"
           style="opacity:1;fill:#00ff00;fill-opacity:1;stroke:#000000;stroke-width:3.04221;stroke-miterlimit:4;stroke-dasharray:none;stroke-opacity:1" />
        <path
           id="path906"
           d="m 386.52667,738.23973 c -40.13339,68.32713 -79.38972,137.18735 -118.64324,206.02658 2.66365,4.05094 10.65946,0.66467 15.05359,2.08261 143.18988,1.5874 286.4057,1.33701 429.59937,0.29116 14.81692,-0.30899 29.63382,-0.61795 44.45074,-0.92694 0.45416,-5.81631 -6.65225,-11.40532 -8.77912,-17.30497 -36.42679,-61.70595 -70.19662,-125.02253 -108.50047,-185.59027 -3.51621,-7.90183 -11.88825,0.007 -17.24605,1.04892 -30.21798,13.20205 -62.13839,24.38981 -95.56716,23.37461 -31.26875,0.5065 -63.16843,1.04474 -92.69348,-10.73358 -16.27572,-4.76387 -31.93628,-13.34512 -47.67418,-18.26812 z"
           style="opacity:1;fill:#00ff00;fill-opacity:1;stroke:#000000;stroke-width:3.04221;stroke-miterlimit:4;stroke-dasharray:none;stroke-opacity:1" />
        <path
           id="path908"
           d="m 8.4428718,530.77225 c -4.3911536,4.28562 -0.6011194,12.48496 -1.2700591,18.00464 8.6710253,125.89822 66.6222233,247.73476 159.7680473,333.04092 23.91619,22.50124 49.7485,43.5782 78.18838,59.98562 5.03017,-1.3083 -2.91791,-7.83568 -3.20207,-10.62329 C 165.20762,797.90763 88.46182,664.62835 10.837424,531.88931 10.2115,531.27226 9.3908012,530.59662 8.4428718,530.77225 Z"
           style="opacity:1;fill:#ff0000;fill-opacity:1;stroke:#000000;stroke-width:3.04221;stroke-miterlimit:4;stroke-dasharray:none;stroke-opacity:1" />
        <path
           id="path910"
           d="m 247.81495,80.569635 c -22.5184,12.900733 -43.67952,28.655265 -63.3759,45.626785 -37.6254,34.19638 -73.47008,71.07985 -100.01663,114.7549 -47.737736,74.97324 -74.9981508,162.86189 -78.139399,251.64773 0.2108581,5.82341 6.071104,2.16378 6.384483,-1.89247 C 92.121543,355.4454 170.87546,219.74655 248.31108,83.323667 c 0.76101,-0.691051 1.07607,-2.87033 -0.49613,-2.754032 z"
           style="opacity:1;fill:#ff0000;fill-opacity:1;stroke:#000000;stroke-width:3.04221;stroke-miterlimit:4;stroke-dasharray:none;stroke-opacity:1" />
        <path
           id="path912"
           d="M 496.84246,6.7544334 C 445.82753,6.543517 395.21526,17.350001 346.96902,33.352981 c -25.34675,9.436531 -51.35565,18.708368 -74.17171,33.37816 -0.77456,4.500627 7.92121,1.542892 10.71273,2.618321 156.20848,1.557642 312.43925,1.123838 468.6517,0.311614 6.53566,-0.768292 -1.73327,-4.908382 -4.06952,-5.85628 C 687.17163,32.383255 619.9805,12.03298 551.44646,7.663646 533.259,6.8309292 515.04736,6.6074414 496.84246,6.7544334 Z"
           style="opacity:1;fill:#ff0000;fill-opacity:1;stroke:#000000;stroke-width:3.04221;stroke-miterlimit:4;stroke-dasharray:none;stroke-opacity:1" />
        <path
           id="path914"
           d="m 777.71516,82.263053 c -3.8182,3.12989 3.61901,8.300789 4.35638,11.93251 76.65627,131.845167 152.12502,264.402617 229.22216,395.978107 0.8766,2.79748 6.1991,7.04275 6.3699,1.72424 -4.6164,-126.66688 -58.66456,-251.46416 -150.17419,-339.58948 -26.82674,-26.39586 -55.72479,-51.46469 -88.64234,-69.911686 -0.36613,-0.103829 -0.75019,-0.175691 -1.13191,-0.133691 z"
           style="opacity:1;fill:#ff0000;fill-opacity:1;stroke:#000000;stroke-width:3.04221;stroke-miterlimit:4;stroke-dasharray:none;stroke-opacity:1" />
        <path
           id="path916"
           d="m 1015.8424,532.30821 c -7.5878,4.09556 -9.1523,14.84981 -14.551,21.24301 -74.39324,128.12596 -148.84427,256.22609 -222.32846,384.87131 0.86076,4.94645 7.3728,-1.25159 9.70596,-2.29354 107.77779,-70.52217 187.47213,-182.95409 216.2047,-308.70246 6.5187,-30.60729 11.8578,-61.78952 12.7573,-93.0981 -0.056,-0.98937 -0.6284,-2.14494 -1.7885,-2.02022 z"
           style="opacity:1;fill:#ff0000;fill-opacity:1;stroke:#000000;stroke-width:3.04221;stroke-miterlimit:4;stroke-dasharray:none;stroke-opacity:1" />
        <path
           id="path918"
           d="m 456.06674,956.66392 c -58.96251,0.52296 -118.03672,-0.77834 -176.92951,1.6132 -2.00249,3.93856 6.28119,5.25189 8.40767,7.38271 60.91368,30.09834 128.08369,48.10397 195.94912,51.73347 45.69221,-0.1027 91.93659,0.1802 136.59588,-10.8773 44.61464,-9.96775 88.62638,-24.90258 128.51629,-47.33572 -1.58031,-4.42704 -10.16141,-0.74438 -14.2959,-2.04353 -92.7462,-0.56961 -185.49599,-0.4883 -278.24355,-0.47283 z"
           style="opacity:1;fill:#ff0000;fill-opacity:1;stroke:#000000;stroke-width:3.04221;stroke-miterlimit:4;stroke-dasharray:none;stroke-opacity:1" />
        <text
           id="text922"
           y="638.58319"
           x="422.91666"
           style="font-style:normal;font-weight:normal;font-size:341.333px;line-height:1.25;font-family:sans-serif;letter-spacing:0px;word-spacing:0px;fill:#000000;fill-opacity:1;stroke:none;filter:url(#filter924)"
           xml:space="preserve"><tspan
             y="638.58319"
             x="422.91666"
             id="tspan920"
             sodipodi:role="line">?</tspan></text>
      </g>
    </g>
  </g>
</svg>
